<svg width="93" height="120" viewBox="0 0 93 120" fill="none" xmlns="http://www.w3.org/2000/svg">
<path d="M77.3753 0.36562C76.1189 1.2 75.2282 2.18437 74.4781 3.5625C73.2405 5.80312 71.5622 7.47187 67.2587 10.725C66.3867 11.3906 65.2241 12.3 64.6803 12.7406C63.1708 13.9687 60.5549 16.6406 59.2517 18.2812C57.9109 19.9687 54.4137 23.7 52.4729 25.5094C51.7322 26.1937 50.9727 26.9719 50.7758 27.2344C50.0445 28.2094 49.8476 28.4062 48.9569 28.9875C48.4506 29.325 47.7568 29.8312 47.4099 30.1219C46.6973 30.7312 46.0129 31.1062 45.5441 31.1437C45.2628 31.1719 45.2253 31.1437 45.1972 30.9187C45.169 30.7219 45.1034 30.6375 44.9159 30.6C44.5409 30.5062 44.1564 30.1031 44.0908 29.7281C44.0533 29.55 43.9502 29.2312 43.8564 29.0156C43.7627 28.8094 43.6033 28.2844 43.4908 27.8437C43.3501 27.3 43.1251 26.7844 42.7782 26.1844C41.4656 23.9531 40.1342 22.8656 38.4934 22.6875C36.7214 22.4906 34.593 22.3969 34.3868 22.5C34.2742 22.5656 33.6554 22.8 32.9991 23.025C31.4802 23.5687 31.1333 23.775 30.2051 24.7219C29.3613 25.575 28.6581 26.5781 28.3862 27.2906C28.1611 27.8625 28.1424 29.2687 28.3393 30.3375C28.4143 30.75 28.5081 31.4625 28.5362 31.9406C28.6018 32.775 28.5924 32.8125 28.358 33.0375C28.0393 33.3656 27.5986 33.3562 26.8954 33C26.1735 32.6344 25.7422 32.625 25.5171 32.9719C25.4328 33.1219 25.1421 33.5062 24.8702 33.8437C24.6077 34.1812 24.3452 34.5469 24.2795 34.6594C24.1389 34.9406 24.1483 35.5781 24.3077 35.8875C24.4389 36.1406 24.4389 36.6937 24.317 37.0875C24.2233 37.3781 24.6546 37.6875 25.1327 37.6875C25.4421 37.6875 25.564 37.7437 25.8078 38.0062C25.9672 38.1844 26.2016 38.3437 26.3328 38.3625C26.5204 38.3812 26.5766 38.4562 26.6329 38.7844C26.6704 39 26.811 39.3469 26.9423 39.5531C27.1392 39.8437 27.1767 39.9937 27.1298 40.2187C27.0829 40.425 27.111 40.5656 27.2048 40.6687C27.2798 40.7531 27.3736 40.9219 27.4111 41.0437C27.4955 41.3344 27.9736 41.5594 28.3862 41.5031C28.5737 41.4844 28.93 41.3719 29.1644 41.2594C29.7269 41.0062 29.8113 41.0156 30.0832 41.2969C30.3551 41.5875 30.5239 41.5875 31.0677 41.3062C31.3021 41.175 31.5646 41.1 31.6396 41.1281C31.8928 41.2219 32.1834 41.925 32.1834 42.4312C32.1834 42.8344 32.1272 43.0031 31.8553 43.4156C31.6677 43.6969 31.3958 43.9781 31.2458 44.0531C31.0958 44.1187 30.8239 44.25 30.6458 44.3344C30.3739 44.4562 29.6707 45.0937 28.3018 46.4531C27.1486 47.5875 26.3047 48.6375 25.9672 49.3406C25.3578 50.5969 23.9889 53.8031 23.6888 54.6469C22.8638 57.0187 22.7606 58.9594 23.3419 61.1906C23.6138 62.2406 23.9326 63 24.6077 64.2187C25.3015 65.4844 25.5078 66.1875 25.5265 67.3875C25.5359 68.1562 25.5171 68.2781 25.3578 68.4C25.0202 68.6437 24.4202 68.5406 22.1981 67.875C16.01 66.0094 13.3847 65.6906 11.547 66.5719C11.097 66.7875 10.797 67.0312 10.2813 67.6125C9.90626 68.0344 9.25932 68.7375 8.83741 69.1781C7.93732 70.1437 7.80606 70.4906 7.89982 71.6062C7.95607 72.3656 8.453 74.3531 8.82803 75.4031C9.19369 76.3969 9.62498 77.0156 10.572 77.8875C11.0501 78.3281 11.894 79.2375 12.4378 79.9031C13.6472 81.3937 16.0287 83.7937 16.9101 84.4219C18.2977 85.3969 19.8072 86.5687 22.0856 88.4344C24.8233 90.675 26.0985 91.6406 26.9517 92.1187C27.2798 92.3062 27.683 92.6062 27.833 92.8031C27.983 92.9906 28.283 93.3469 28.4893 93.6094C28.8643 94.0687 29.0519 94.5187 29.0519 94.95C29.0519 95.0625 29.2206 95.3437 29.4269 95.5687C29.7738 95.9437 29.9238 96.375 29.7082 96.375C29.6613 96.375 29.53 96.4594 29.4363 96.5531C29.2769 96.7125 29.2675 96.7875 29.3519 97.0875C29.4269 97.3781 29.4175 97.4625 29.2956 97.5562C29.08 97.7062 29.1081 97.8 29.4269 98.1094C29.5863 98.2594 29.7363 98.5219 29.7644 98.7094C29.8394 99.1406 30.0082 99.4687 30.2614 99.6937C30.3926 99.8062 30.4582 99.9844 30.4582 100.2C30.4582 100.462 30.5426 100.612 30.8802 100.95C31.2083 101.278 31.3302 101.353 31.4146 101.269C31.6021 101.081 31.8178 101.147 32.1553 101.494C32.3241 101.681 32.6522 101.953 32.8772 102.112C33.3554 102.441 33.3554 102.637 32.896 102.862C32.5678 103.031 32.5678 103.031 32.8304 103.031C33.1679 103.031 33.1585 103.237 32.7928 103.566C32.3803 103.941 32.0334 104.306 31.5646 104.906C31.1052 105.487 30.4676 105.881 29.7457 106.031C29.4832 106.087 29.1175 106.219 28.93 106.312C28.7331 106.416 28.1893 106.659 27.7111 106.847C26.6798 107.25 26.1735 107.578 25.7422 108.122C24.9358 109.116 24.8046 109.762 25.1984 110.906C25.3484 111.347 25.4515 111.731 25.4328 111.759C25.414 111.797 25.189 111.844 24.9265 111.881C24.2326 111.975 23.9982 112.087 23.9326 112.359C23.8107 112.856 24.4108 113.156 25.9391 113.334C26.3704 113.391 28.0955 113.475 29.7832 113.531C33.1304 113.634 35.0149 113.756 35.5212 113.906C35.7838 113.981 35.9056 114.084 36.0557 114.403C36.1682 114.637 36.3557 114.853 36.5151 114.928C37.0214 115.162 37.0589 115.181 37.0964 115.294C37.2183 115.669 35.6806 116.381 34.5086 116.503C33.9086 116.569 33.7304 116.437 33.4117 115.716C33.1023 115.022 32.8304 114.9 31.5459 114.891H30.5333L30.1676 115.294C29.3425 116.231 29.23 117.806 29.9238 118.819C30.2145 119.231 30.7583 119.437 31.6302 119.437C32.5209 119.437 32.8866 119.269 33.1679 118.706C33.421 118.2 33.5617 118.116 34.1805 118.059C34.9024 118.003 41.7093 118.378 42.0187 118.491C42.2531 118.584 42.3656 118.706 42.7688 119.344C43.0782 119.831 43.4908 120 44.3721 120C45.244 120 45.6847 119.803 46.0785 119.231C46.3504 118.847 46.5848 118.087 46.5848 117.609C46.5848 117.094 46.3035 116.344 45.9754 115.987L45.666 115.641H44.5971C43.6314 115.641 43.5095 115.659 43.2564 115.856C43.097 115.978 42.8626 116.269 42.7313 116.512C42.4594 117.009 42.2719 117.075 41.6437 116.897C41.1093 116.756 40.7717 116.484 40.7717 116.212C40.7717 116.091 40.678 115.791 40.5748 115.547C40.3498 115.041 40.3686 114.366 40.603 114.122C40.678 114.056 40.9874 113.934 41.2968 113.859C42.3469 113.616 43.5939 113.156 44.0158 112.866C45.1315 112.097 48.685 110.672 55.2575 108.366C57.1515 107.7 58.2953 107.344 58.5485 107.344C59.0641 107.344 59.5048 107.653 59.8142 108.234C60.1236 108.816 60.4143 108.947 61.5863 109.003C62.702 109.059 62.9739 108.928 63.5083 108.15L63.8834 107.606L64.6897 107.653C65.1303 107.681 65.7492 107.775 66.0679 107.85C66.518 107.972 66.7336 107.981 67.0805 107.906C67.3806 107.841 67.8025 107.831 68.4213 107.897C68.9182 107.953 69.7058 108.019 70.1652 108.056C71.8904 108.178 72.3592 108.375 72.7342 109.116C73.128 109.884 73.2499 109.959 74.1218 110.034C75.6782 110.147 76.1283 109.922 76.5408 108.825C76.8971 107.869 76.944 106.978 76.6908 106.303C76.3908 105.525 76.2127 105.394 75.2938 105.319C74.2719 105.234 73.8499 105.394 73.2124 106.106L72.7436 106.631L72.3873 106.509C71.5435 106.2 69.5464 105.159 69.1526 104.803C68.7119 104.419 68.44 103.856 68.5526 103.556C68.6276 103.369 69.7527 103.031 70.3152 103.031C70.634 103.031 70.934 103.106 71.2716 103.284C71.7029 103.509 71.881 103.547 72.903 103.575C74.7313 103.631 77.0752 103.191 77.4972 102.703C77.7597 102.403 77.9003 101.906 77.9003 101.231C77.9003 100.725 77.9191 100.687 78.2566 100.444C79.5505 99.4969 80.0943 99.0375 80.8631 98.2781C83.254 95.8875 84.4353 93.375 83.8165 92.0156C83.4321 91.1625 82.6633 90.7406 81.1819 90.5531C80.1787 90.4312 78.5754 90.5531 77.3847 90.8344C75.9876 91.1625 76.0439 91.1625 75.2001 90.75C74.5063 90.4125 74.3937 90.3281 74.0562 89.8031C73.6437 89.1656 73.5968 88.875 73.8124 88.2656C74.3 86.8875 74.3844 86.475 74.3562 85.6781C74.3375 85.0406 74.3656 84.7969 74.5156 84.4594C74.8344 83.775 74.7782 83.175 74.3187 82.1812C74.1031 81.7125 73.8124 81.1406 73.6718 80.9062C73.2686 80.2219 72.6686 76.6312 72.4717 73.5937C72.1904 69.4406 72.0685 67.9312 71.9466 67.05C71.6466 64.9406 70.9528 62.3719 69.7808 59.0156C69.387 57.8812 68.7401 56.0062 68.3557 54.8437L67.6431 52.7344L65.4773 50.5875C64.1365 49.2562 63.1802 48.3844 62.9458 48.2719C62.477 48.0562 61.53 48.0375 60.8737 48.2344C60.6112 48.3094 59.9455 48.6656 59.3923 49.0312C58.2766 49.7437 58.0234 49.8281 57.1046 49.7625C56.1013 49.6875 55.7826 49.4719 55.1731 48.45C54.8919 47.9719 54.3949 47.2687 54.0574 46.9031L53.4573 46.2281L53.4011 44.4656C53.3073 41.7562 53.3261 37.2844 53.4292 36.7687C53.5042 36.4594 53.673 36.1406 53.9824 35.7562C54.2355 35.4562 54.845 34.6125 55.3513 33.8906C56.3732 32.4375 57.7328 30.6187 59.2517 28.6687C60.6205 26.925 61.0331 26.325 61.6425 25.2562C62.0269 24.5625 62.3457 24.1406 62.8895 23.6156C63.2927 23.2219 63.8083 22.6312 64.0334 22.3031C64.7084 21.2906 65.046 20.925 66.1242 20.0344C67.765 18.6844 68.5057 17.8781 69.4995 16.3406C69.7339 15.9656 69.9777 15.6375 70.0246 15.6094C70.0714 15.5812 70.3996 15.1219 70.7465 14.5969C71.7404 13.1156 73.9249 10.8844 75.4063 9.85312C75.8751 9.525 76.5596 8.97187 76.9252 8.625C77.544 8.04375 77.6847 7.95937 78.8098 7.51875C79.4849 7.25625 80.2162 6.99375 80.4412 6.9375C80.6662 6.88125 81.1913 6.73125 81.6038 6.60937C82.0164 6.4875 82.532 6.3375 82.757 6.28125C83.2352 6.15937 83.7321 5.74687 84.0509 5.19375C84.3791 4.63125 84.3041 4.4625 83.7603 4.5375C83.3759 4.60312 83.3384 4.58437 83.3384 4.41562C83.3384 4.3125 83.554 3.79687 83.8071 3.27187C84.0697 2.74687 84.2759 2.25 84.2759 2.16562C84.2759 1.9125 84.0228 1.63125 83.6571 1.45312L83.3196 1.29375L82.9539 1.65C82.5789 2.01562 82.5602 2.01562 82.5883 1.56562C82.5977 1.3875 82.5602 1.3125 82.4476 1.3125C82.3633 1.3125 82.1664 1.24687 82.007 1.1625C81.6694 0.993745 81.1163 0.96562 80.9663 1.11562C80.7881 1.29375 80.6006 1.22812 80.2912 0.862495C80.0005 0.53437 79.9537 0.51562 79.4942 0.53437C79.0629 0.55312 78.9504 0.51562 78.6785 0.281245C78.5098 0.12187 78.266 -4.76837e-06 78.1441 -4.76837e-06C78.0222 -4.76837e-06 77.6753 0.168745 77.3753 0.36562ZM34.4055 67.0312C34.7149 67.5281 34.7243 67.7719 34.5274 68.6062C34.3117 69.4594 34.0305 69.7687 33.7492 69.4312C33.6179 69.2719 33.0835 67.3875 33.0835 67.0781C33.0835 66.7781 33.421 66.5531 33.8242 66.5812C34.0961 66.6094 34.1899 66.675 34.4055 67.0312ZM64.1646 84.7594C64.2021 84.8156 64.2396 85.2 64.2584 85.6219C64.2771 86.3625 64.3896 86.9437 64.6053 87.4875C64.6522 87.6281 65.3272 88.2937 66.0961 88.9781C67.5962 90.3 67.6243 90.3469 67.3899 91.0219C67.2681 91.3687 67.1368 91.3875 65.8242 91.1625C65.0928 91.0312 64.8209 91.0312 64.2865 91.1156C63.152 91.3031 62.0457 91.9219 61.7175 92.55C61.6331 92.7 61.4925 93.2531 61.3894 93.7594C61.2487 94.5 61.23 94.7812 61.305 95.1187C61.4925 95.9437 62.0269 96.8062 62.8989 97.6687C63.2739 98.0344 63.4614 98.2969 63.4427 98.4094C63.3864 98.7187 62.552 99.0094 59.5517 99.7594C56.1951 100.594 54.8075 101.044 51.6947 102.281C48.9194 103.387 48.9944 103.397 47.8318 101.587C47.0817 100.434 46.6129 99.8437 46.4442 99.8437C46.3692 99.8437 46.1723 99.9281 46.0035 100.031C45.2159 100.509 44.7565 100.153 41.8406 96.7687C39.6654 94.2562 39.6466 94.2281 39.6466 93.9937C39.6466 93.8719 39.5529 93.6562 39.4404 93.5062C39.2153 93.225 38.5965 92.1 38.1465 91.1531C37.7902 90.4031 37.6871 89.9344 37.6777 89.0437C37.6777 88.4062 37.6964 88.3031 37.8746 88.2094C38.2121 88.0312 38.8028 88.1719 39.8904 88.6687C41.8218 89.5594 43.2376 89.925 45.3566 90.1031C46.7254 90.225 48.7038 90.1125 49.9039 89.8594C51.4978 89.5219 59.9923 86.8125 60.9393 86.3344C61.3237 86.1469 62.1019 85.6875 62.6645 85.3219C63.6396 84.6844 64.0334 84.5344 64.1646 84.7594ZM34.4711 98.0906C34.5743 98.1844 34.7337 98.6156 34.8649 99.1219L35.0806 99.9844L34.8743 100.603C34.7618 100.941 34.6211 101.297 34.5555 101.381C34.443 101.541 34.4149 101.531 34.0961 101.344C33.8711 101.212 33.7117 101.034 33.6461 100.819C33.5429 100.519 33.2148 100.078 32.5491 99.3469C32.3053 99.0844 31.9584 99 31.9584 99.2156C31.9584 99.2906 32.2584 99.6187 32.6241 99.9562C33.1866 100.481 33.2804 100.612 33.2523 100.837C33.2241 101.091 33.196 101.109 32.8304 101.091C32.6053 101.081 32.2959 100.997 32.1365 100.903C31.9021 100.762 31.4146 100.125 30.9833 99.4031C30.9458 99.3375 31.0114 99.1969 31.1239 99.0844C31.2552 98.9531 31.3021 98.8219 31.2646 98.6719C31.1146 98.0719 31.4802 97.9219 33.0647 97.9312C34.0867 97.9312 34.3305 97.9594 34.4711 98.0906Z" fill="#FF0000"/>
<path d="M4.54893 72.9403C0.478834 71.4872 0.119708 70.2764 0.0598534 57.0777L0 46.6036H5.98544L6.10514 57.0777L6.28471 67.4913L7.72121 67.673C8.49932 67.794 9.39713 67.5519 9.63655 67.0675C9.93582 66.6437 10.1752 61.8607 10.1752 56.4723V46.6036H15.6818L15.4424 57.6832C15.3227 66.9464 15.0833 69.0049 14.2453 70.3974C12.33 73.3036 8.37961 74.3934 4.54893 72.9403ZM19.7519 59.8628V46.4219L25.498 46.7247C30.9447 47.0274 31.3038 47.1485 33.0995 48.9648C34.8352 50.66 35.0148 51.2049 35.0148 54.656C35.0148 57.6226 34.7155 58.8335 33.5783 60.4076L32.2016 62.4056L33.7579 66.9464C34.6557 69.4294 35.5535 71.9111 35.733 72.3954C36.0323 73.1831 35.4936 73.3036 32.86 73.1219L29.6279 72.9403L28.1914 67.9757C27.4133 65.1906 26.5155 62.9505 26.2162 62.9505C25.9768 62.9505 25.7374 65.2512 25.7374 68.0968V73.243H19.7519V59.8628ZM28.9097 56.109C29.6279 53.8689 28.6104 51.4471 26.9345 51.4471C25.8571 51.4471 25.7374 51.8104 25.7374 54.8376C25.7374 57.9253 25.8571 58.1675 27.0542 57.9859C27.8323 57.8648 28.5505 57.1383 28.9097 56.109ZM39.3842 59.8628L39.5637 46.4825L45.609 46.7247C51.2952 46.9668 51.7142 47.0274 53.031 48.6015C54.7667 50.66 55.066 55.8063 53.5098 57.9859C52.6718 59.2573 52.6718 59.439 53.8091 60.892C55.3054 62.8294 55.485 67.613 54.228 70.1559C52.9711 72.5776 50.8762 73.2436 44.7112 73.2436H39.2046L39.3842 59.8628ZM47.9433 67.794C48.6616 67.3702 49.0806 66.5226 49.0806 65.4934C49.0806 63.3132 48.482 62.5267 46.5068 62.0423L44.8908 61.6185V65.0096C44.8908 68.6417 45.4295 69.126 47.9433 67.794ZM47.6441 57.0172C49.6791 55.6247 48.5419 51.4471 46.0879 51.4471C45.0703 51.4471 44.8908 51.8709 44.8908 54.4743C44.8908 56.9566 45.0703 57.5015 45.9681 57.5015C46.5068 57.5015 47.2849 57.2594 47.6441 57.0172ZM57.1011 72.2138C57.2806 71.6083 58.4777 66.2804 59.7945 60.4076C61.1113 54.5349 62.3682 49.0253 62.6077 48.1777C62.9668 46.7852 63.2661 46.6036 65.8398 46.6036C68.1143 46.6036 68.8325 46.8457 69.0719 47.6934C69.1916 48.2383 70.4486 53.7478 71.8252 59.9233C73.2019 66.0988 74.4588 71.6083 74.5785 72.2138C74.8778 73.0614 74.4588 73.243 71.9449 73.243C68.7727 73.243 68.234 72.6376 68.234 69.1866C68.234 67.9757 67.9347 67.794 65.8398 67.794C63.7449 67.794 63.4456 67.9757 63.0865 69.4893C62.2485 73.3036 62.3084 73.243 59.4952 73.243C57.1609 73.243 56.8018 73.0614 57.1011 72.2138ZM67.0369 62.5267C66.977 62.224 66.6179 60.5287 66.1989 58.7124L65.4208 55.3825L64.7624 58.5913C63.8047 62.8906 63.8047 62.9505 65.5405 62.9505C66.3785 62.9505 67.0369 62.7689 67.0369 62.5267ZM77.2121 59.9233V46.6036H82.8983L84.9932 52.7791L87.0881 58.8941L87.2677 52.7791L87.4472 46.6036H92.1757V73.3036L89.7217 73.1219L87.2677 72.9403L84.6341 65.9777L82.0603 59.0151V66.1593L82.0005 73.243H77.2121V59.9233Z" fill="white"/>
</svg>
