<svg width="102" height="30" viewBox="0 0 102 30" fill="none" xmlns="http://www.w3.org/2000/svg">
<path d="M5.03377 29.2922C0.529869 27.6871 0.132467 26.3496 0.0662328 11.7704L0 0.200633H6.62338L6.75584 11.7704L6.95455 23.2732L8.54416 23.4738C9.4052 23.6076 10.3987 23.3401 10.6636 22.8051C10.9948 22.3369 11.2597 17.0537 11.2597 11.1016V0.200633H17.3532L17.0883 12.4391C16.9558 22.6713 16.6909 24.9451 15.7636 26.4833C13.6442 29.6934 9.27273 30.8972 5.03377 29.2922ZM21.8571 14.8467V0L28.2156 0.334385C34.2429 0.668771 34.6403 0.802523 36.6273 2.80883C38.5481 4.68139 38.7467 5.28329 38.7467 9.09528C38.7467 12.3723 38.4156 13.7098 37.1571 15.4486L35.6338 17.6556L37.3558 22.6713C38.3494 25.414 39.3429 28.1552 39.5416 28.6903C39.8727 29.5603 39.2766 29.6934 36.3623 29.4928L32.7857 29.2922L31.1961 23.8082C30.3351 20.7319 29.3416 18.2574 29.0104 18.2574C28.7455 18.2574 28.4805 20.7988 28.4805 23.942V29.6265H21.8571V14.8467ZM31.9909 10.7003C32.7857 8.22588 31.6597 5.5508 29.8052 5.5508C28.613 5.5508 28.4805 5.95206 28.4805 9.29592C28.4805 12.7066 28.613 12.9742 29.9377 12.7735C30.7987 12.6398 31.5935 11.8372 31.9909 10.7003ZM43.5818 14.8467L43.7805 0.0668812L50.4701 0.334385C56.7623 0.601894 57.226 0.668775 58.6831 2.40758C60.6039 4.6814 60.9351 10.3659 59.213 12.7735C58.2857 14.1779 58.2857 14.3786 59.5442 15.9836C61.2 18.1237 61.3987 23.4076 60.0078 26.2165C58.6169 28.8916 56.2987 29.6272 49.4766 29.6272H43.3831L43.5818 14.8467ZM53.0532 23.6076C53.8481 23.1395 54.3117 22.2032 54.3117 21.0663C54.3117 18.658 53.6493 17.7893 51.4636 17.2543L49.6753 16.7861V20.5319C49.6753 24.5439 50.2714 25.0789 53.0532 23.6076ZM52.7221 11.7035C54.974 10.1653 53.7156 5.5508 51 5.5508C49.874 5.5508 49.6753 6.01894 49.6753 8.89465C49.6753 11.6366 49.874 12.2385 50.8675 12.2385C51.4636 12.2385 52.3247 11.971 52.7221 11.7035ZM63.187 28.4896C63.3857 27.8209 64.7104 21.9357 66.1675 15.4486C67.6247 8.96152 69.0156 2.87572 69.2805 1.93944C69.6779 0.401268 70.0091 0.200633 72.8571 0.200633C75.374 0.200633 76.1688 0.468144 76.4338 1.40442C76.5662 2.00632 77.9571 8.09213 79.4805 14.9136C81.0039 21.735 82.3948 27.8209 82.5273 28.4896C82.8585 29.4259 82.3948 29.6265 79.613 29.6265C76.1026 29.6265 75.5065 28.9578 75.5065 25.1458C75.5065 23.8082 75.1753 23.6076 72.8571 23.6076C70.539 23.6076 70.2078 23.8082 69.8104 25.4802C68.8831 29.6934 68.9493 29.6265 65.8364 29.6265C63.2532 29.6265 62.8558 29.4259 63.187 28.4896ZM74.1818 17.7893C74.1156 17.4549 73.7182 15.5824 73.2545 13.576L72.3935 9.89781L71.6649 13.4423C70.6052 18.1912 70.6052 18.2574 72.526 18.2574C73.4532 18.2574 74.1818 18.0568 74.1818 17.7893ZM85.4416 14.9136V0.200633H91.7338L94.0519 7.02209L96.3701 13.7767L96.5688 7.02209L96.7675 0.200633H102V29.6934L99.2844 29.4928L96.5688 29.2922L93.6545 21.6013L90.8065 13.9104V21.8019L90.7403 29.6265H85.4416V14.9136Z" fill="white"/>
</svg>
